<svg width="103" height="39" viewBox="0 0 103 39" fill="none" xmlns="http://www.w3.org/2000/svg">
<path d="M8.25828 31.6C7.23828 31.6 6.25828 31.35 5.31828 30.85C4.37828 30.35 3.68828 29.63 3.24828 28.69C2.96828 28.09 2.76828 27.46 2.64828 26.8C2.52828 26.12 2.46828 25.45 2.46828 24.79C2.46828 24.69 2.46828 24.51 2.46828 24.25C2.48828 23.97 2.51828 23.67 2.55828 23.35C2.59828 23.01 2.64828 22.73 2.70828 22.51C2.76828 22.27 2.85828 22.15 2.97828 22.15C2.97828 22.15 2.98828 22.16 3.00828 22.18C3.02828 22.18 3.03828 22.19 3.03828 22.21C3.13828 22.43 3.18828 22.76 3.18828 23.2C3.18828 23.62 3.19828 23.97 3.21828 24.25C3.29828 24.93 3.44828 25.67 3.66828 26.47C3.88828 27.25 4.19828 27.98 4.59828 28.66C5.01828 29.34 5.52828 29.9 6.12828 30.34C6.72828 30.78 7.44828 31 8.28828 31C9.20828 31 10.0883 30.71 10.9283 30.13C11.7883 29.55 12.5883 28.79 13.3283 27.85C14.0683 26.91 14.7483 25.9 15.3683 24.82C15.9883 23.74 16.5283 22.7 16.9883 21.7C17.4683 20.68 17.8583 19.81 18.1583 19.09C18.5983 18.01 19.0283 16.92 19.4483 15.82C19.8883 14.7 20.2683 13.58 20.5883 12.46C20.6483 12.24 20.7083 12.01 20.7683 11.77C20.8483 11.53 20.8983 11.3 20.9183 11.08C20.6983 10.8 20.4583 10.53 20.1983 10.27C19.9583 10.01 19.6983 9.77 19.4183 9.55C18.6983 8.99 17.8783 8.5 16.9583 8.08C16.0383 7.64 15.0883 7.3 14.1083 7.06C13.1483 6.8 12.2083 6.67 11.2883 6.67C10.6483 6.67 10.0283 6.77 9.42828 6.97C8.84828 7.15 8.37828 7.46 8.01828 7.9C7.65828 8.34 7.47828 8.94 7.47828 9.7C7.47828 9.86 7.47828 10.03 7.47828 10.21C7.49828 10.39 7.50828 10.56 7.50828 10.72C7.50828 10.8 7.49828 10.93 7.47828 11.11C7.45828 11.27 7.39828 11.35 7.29828 11.35C7.17828 11.35 7.08828 11.26 7.02828 11.08C6.96828 10.9 6.91828 10.71 6.87828 10.51C6.85828 10.31 6.84828 10.17 6.84828 10.09C6.84828 9.81 6.86828 9.55 6.90828 9.31C6.96828 9.05 7.02828 8.79 7.08828 8.53C7.34828 7.43 7.89828 6.65 8.73828 6.19C9.59828 5.71 10.5483 5.47 11.5883 5.47C12.4083 5.47 13.2783 5.59 14.1983 5.83C15.1383 6.05 16.0683 6.37 16.9883 6.79C17.9083 7.19 18.7683 7.66 19.5683 8.2C20.3683 8.74 21.0383 9.32 21.5783 9.94C21.6383 9.88 21.7383 9.78 21.8783 9.64C22.0183 9.48 22.1583 9.33 22.2983 9.19C22.4383 9.05 22.5383 8.98 22.5983 8.98C22.6983 8.98 22.7483 9.04 22.7483 9.16C22.7483 9.46 22.7083 9.77 22.6283 10.09C22.5683 10.41 22.4983 10.72 22.4183 11.02C23.1383 12.06 23.7383 13.28 24.2183 14.68C24.7183 16.06 25.0883 17.5 25.3283 19C25.5883 20.48 25.7183 21.89 25.7183 23.23C25.7183 23.39 25.7183 23.55 25.7183 23.71C25.7183 23.87 25.7083 24.03 25.6883 24.19C26.5083 22.73 27.4183 21.26 28.4183 19.78C29.4383 18.3 30.5383 16.89 31.7183 15.55C32.8983 14.19 34.1383 12.99 35.4383 11.95C35.8183 11.65 36.1983 11.37 36.5783 11.11C36.9783 10.83 37.3783 10.56 37.7783 10.3L37.8983 10.21C38.0583 9.91 38.2483 9.59 38.4683 9.25C38.6483 9.13 38.8283 9.07 39.0083 9.07C39.0483 9.07 39.1583 9.11 39.3383 9.19C39.5183 9.25 39.6183 9.29 39.6383 9.31C40.1983 9.07 40.7783 8.86 41.3783 8.68C41.9783 8.5 42.5883 8.41 43.2083 8.41C43.3683 8.41 43.6183 8.44 43.9583 8.5C44.3183 8.54 44.6483 8.61 44.9483 8.71C45.2683 8.81 45.4283 8.96 45.4283 9.16C45.4283 9.2 45.4183 9.26 45.3983 9.34C45.3783 9.4 45.3583 9.45 45.3383 9.49L45.0683 10C44.9683 10.22 44.8883 10.46 44.8283 10.72C44.7683 10.96 44.6983 11.19 44.6183 11.41C44.5983 11.45 44.5583 11.57 44.4983 11.77C44.4383 11.95 44.3783 12.04 44.3183 12.04H44.2583C44.1383 11.96 44.0583 11.85 44.0183 11.71C43.9983 11.57 43.9883 11.4 43.9883 11.2C43.9883 10.92 43.9783 10.63 43.9583 10.33C43.9383 10.01 43.8183 9.74 43.5983 9.52C43.3983 9.3 42.9983 9.19 42.3983 9.19C41.8583 9.19 41.3283 9.28 40.8083 9.46C40.3083 9.64 39.8283 9.86 39.3683 10.12C38.9283 10.74 38.4583 11.6 37.9583 12.7C37.4783 13.8 36.9983 15.02 36.5183 16.36C36.0583 17.7 35.6283 19.05 35.2283 20.41C34.8483 21.75 34.5383 23 34.2983 24.16C34.0783 25.3 33.9683 26.22 33.9683 26.92C33.9683 27.38 34.0283 27.81 34.1483 28.21C34.2883 28.63 34.6383 28.84 35.1983 28.84C35.5383 28.84 35.7783 28.72 35.9183 28.48C36.0583 28.24 36.2083 28.09 36.3683 28.03C36.4083 28.05 36.4283 28.1 36.4283 28.18C36.4283 28.5 36.2583 28.78 35.9183 29.02C35.5983 29.26 35.2283 29.44 34.8083 29.56C34.4083 29.7 34.0683 29.77 33.7883 29.77C33.3483 29.77 33.0283 29.65 32.8283 29.41C32.6283 29.17 32.4983 28.87 32.4383 28.51C32.3983 28.15 32.3783 27.8 32.3783 27.46C32.3783 26.68 32.4783 25.76 32.6783 24.7C32.8983 23.62 33.1783 22.48 33.5183 21.28C33.8783 20.08 34.2683 18.88 34.6883 17.68C35.1083 16.48 35.5383 15.35 35.9783 14.29C36.4183 13.23 36.8283 12.32 37.2083 11.56C35.7683 12.64 34.3783 13.9 33.0383 15.34C31.6983 16.76 30.4883 18.29 29.4083 19.93C28.3283 21.55 27.4583 23.22 26.7983 24.94C26.7183 25.12 26.6483 25.34 26.5883 25.6C26.5283 25.86 26.4983 26.09 26.4983 26.29C26.4983 26.41 26.4083 26.52 26.2283 26.62C26.0683 26.72 25.8883 26.81 25.6883 26.89C25.4883 26.97 25.3483 27.06 25.2683 27.16C25.0883 27.38 24.9283 27.57 24.7883 27.73C24.6683 27.87 24.4583 27.99 24.1583 28.09C24.1783 27.69 24.1883 27.3 24.1883 26.92C24.2083 26.54 24.2183 26.16 24.2183 25.78C24.2183 24.42 24.1483 22.97 24.0083 21.43C23.8683 19.89 23.6283 18.37 23.2883 16.87C22.9683 15.35 22.5083 13.98 21.9083 12.76C21.4883 14.02 21.0583 15.28 20.6183 16.54C20.1983 17.8 19.7383 19.05 19.2383 20.29C18.8183 21.31 18.3083 22.38 17.7083 23.5C17.1283 24.6 16.4583 25.66 15.6983 26.68C14.9383 27.7 14.0983 28.61 13.1783 29.41C12.2583 30.23 11.2583 30.85 10.1783 31.27C9.87828 31.39 9.55828 31.47 9.21828 31.51C8.89828 31.57 8.57828 31.6 8.25828 31.6ZM37.8095 28.06C37.4895 28.06 37.2795 27.94 37.1795 27.7C37.0995 27.44 37.0595 27.18 37.0595 26.92C37.0595 25.98 37.2395 24.97 37.5995 23.89C37.9595 22.81 38.4295 21.78 39.0095 20.8C39.5895 19.8 40.2195 18.98 40.8995 18.34C41.6195 17.68 42.4695 17.35 43.4495 17.35C43.8495 17.35 44.2395 17.4 44.6195 17.5C45.0195 17.58 45.4095 17.7 45.7895 17.86C46.1295 17.62 46.4995 17.41 46.8995 17.23C47.2995 17.05 47.7095 16.96 48.1295 16.96C48.2295 16.96 48.3095 17.02 48.3695 17.14V17.23C48.3695 17.29 48.3395 17.32 48.2795 17.32C48.2395 17.3 48.1995 17.29 48.1595 17.29C47.8395 17.29 47.4895 17.54 47.1095 18.04C46.7295 18.52 46.3495 19.14 45.9695 19.9C45.5895 20.66 45.2395 21.46 44.9195 22.3C44.6195 23.14 44.3695 23.91 44.1695 24.61C43.9895 25.31 43.8995 25.84 43.8995 26.2C43.8995 26.34 43.9195 26.5 43.9595 26.68C44.0195 26.86 44.1395 26.95 44.3195 26.95C44.4195 26.95 44.4995 26.93 44.5595 26.89C44.6395 26.85 44.7195 26.81 44.7995 26.77C45.2395 26.51 45.6695 26.16 46.0895 25.72C46.5295 25.26 46.9295 24.77 47.2895 24.25C47.6695 23.71 47.9795 23.22 48.2195 22.78C48.2395 22.8 48.2495 22.84 48.2495 22.9C48.2495 23.02 48.1795 23.2 48.0395 23.44C47.8995 23.66 47.7395 23.9 47.5595 24.16C47.3795 24.42 47.2095 24.65 47.0495 24.85C46.9095 25.05 46.8395 25.17 46.8395 25.21C46.8195 25.35 46.7895 25.47 46.7495 25.57C46.7095 25.65 46.6495 25.76 46.5695 25.9C46.3095 26.16 45.9795 26.46 45.5795 26.8C45.1795 27.14 44.7595 27.44 44.3195 27.7C43.8995 27.94 43.4895 28.06 43.0895 28.06C42.4695 28.06 42.1595 27.73 42.1595 27.07C42.1595 26.67 42.2395 26.21 42.3995 25.69C42.5795 25.15 42.7795 24.62 42.9995 24.1C43.2395 23.56 43.4495 23.11 43.6295 22.75C43.6295 22.73 43.6295 22.7 43.6295 22.66C43.6295 22.62 43.6195 22.6 43.5995 22.6C43.5795 22.6 43.5495 22.62 43.5095 22.66C43.2695 22.98 42.9195 23.44 42.4595 24.04C41.9995 24.64 41.4895 25.25 40.9295 25.87C40.3895 26.47 39.8395 26.99 39.2795 27.43C38.7195 27.85 38.2295 28.06 37.8095 28.06ZM39.1295 26.77C39.3495 26.77 39.6195 26.63 39.9395 26.35C40.2795 26.05 40.6295 25.7 40.9895 25.3C41.3695 24.88 41.6995 24.48 41.9795 24.1C42.2795 23.72 42.4895 23.44 42.6095 23.26C42.8495 22.9 43.1195 22.45 43.4195 21.91C43.7395 21.37 44.0095 20.81 44.2295 20.23C44.4695 19.65 44.5895 19.16 44.5895 18.76C44.5895 18.14 44.2795 17.83 43.6595 17.83C43.2995 17.83 42.9195 17.99 42.5195 18.31C42.1195 18.63 41.7995 18.92 41.5595 19.18C41.2995 19.5 40.9995 19.96 40.6595 20.56C40.3395 21.16 40.0395 21.81 39.7595 22.51C39.4795 23.21 39.2395 23.88 39.0395 24.52C38.8595 25.16 38.7695 25.69 38.7695 26.11C38.7695 26.23 38.7895 26.37 38.8295 26.53C38.8695 26.69 38.9695 26.77 39.1295 26.77ZM46.1211 28.39C46.0811 28.39 46.0611 28.38 46.0611 28.36C46.0611 28.28 46.1011 28.2 46.1811 28.12C46.2411 28.06 46.2911 28 46.3311 27.94C46.5111 27.64 46.7111 27.13 46.9311 26.41C47.1711 25.67 47.4011 24.86 47.6211 23.98C47.8611 23.1 48.0711 22.28 48.2511 21.52C48.4511 20.74 48.5911 20.15 48.6711 19.75C48.7111 19.59 48.7511 19.38 48.7911 19.12C48.8511 18.86 48.9211 18.6 49.0011 18.34C49.0811 18.08 49.1711 17.91 49.2711 17.83C49.4511 17.67 49.7211 17.53 50.0811 17.41C50.4411 17.29 50.8011 17.2 51.1611 17.14C51.5411 17.06 51.8511 17.02 52.0911 17.02C52.1311 17.02 52.1811 17.04 52.2411 17.08C52.3011 17.12 52.3411 17.16 52.3611 17.2L52.3911 17.29C52.3711 17.35 52.3411 17.38 52.3011 17.38C52.2611 17.36 52.2211 17.35 52.1811 17.35C51.8011 17.35 51.4511 17.57 51.1311 18.01C50.8111 18.43 50.5311 18.95 50.2911 19.57C50.0511 20.19 49.8411 20.79 49.6611 21.37C49.5011 21.93 49.3911 22.35 49.3311 22.63C49.5311 22.17 49.7911 21.65 50.1111 21.07C50.4511 20.47 50.8411 19.9 51.2811 19.36C51.7211 18.8 52.2011 18.34 52.7211 17.98C53.2411 17.6 53.7911 17.41 54.3711 17.41C54.4511 17.41 54.5811 17.43 54.7611 17.47C54.9611 17.49 55.1411 17.54 55.3011 17.62C55.4811 17.68 55.5711 17.76 55.5711 17.86L55.5411 17.89H55.5111L55.3311 17.83C55.3911 17.97 55.4311 18.11 55.4511 18.25C55.4711 18.39 55.4811 18.53 55.4811 18.67C55.4811 18.79 55.4411 19.05 55.3611 19.45C55.3011 19.85 55.2111 20.23 55.0911 20.59C54.9911 20.93 54.8811 21.1 54.7611 21.1C54.6811 21.1 54.6411 21.07 54.6411 21.01C54.6411 20.91 54.6711 20.75 54.7311 20.53C54.8111 20.29 54.8511 20.07 54.8511 19.87C54.8511 19.51 54.7611 19.22 54.5811 19C54.4011 18.78 54.1311 18.67 53.7711 18.67C53.1711 18.67 52.5911 18.93 52.0311 19.45C51.4711 19.95 50.9611 20.58 50.5011 21.34C50.0411 22.08 49.6511 22.83 49.3311 23.59C49.0111 24.35 48.7911 24.97 48.6711 25.45C48.5911 25.71 48.5211 26.05 48.4611 26.47C48.4011 26.87 48.2511 27.15 48.0111 27.31C47.9511 27.33 47.7611 27.43 47.4411 27.61C47.1411 27.79 46.8511 27.96 46.5711 28.12C46.2711 28.3 46.1211 28.39 46.1211 28.39ZM76.3461 28.15C75.9661 28.15 75.6961 28.05 75.5361 27.85C75.3961 27.63 75.3261 27.25 75.3261 26.71C75.3261 25.93 75.4261 25.11 75.6261 24.25C75.8261 23.39 76.0961 22.56 76.4361 21.76C76.7761 20.94 77.1561 20.23 77.5761 19.63C77.8961 19.19 78.3261 18.78 78.8661 18.4C79.4061 18.02 79.9861 17.71 80.6061 17.47C81.2261 17.23 81.8061 17.11 82.3461 17.11C82.5261 17.11 82.7461 17.14 83.0061 17.2C83.2661 17.24 83.4661 17.32 83.6061 17.44C83.7061 17.52 83.7661 17.63 83.7861 17.77C83.8261 17.91 83.8461 18.04 83.8461 18.16C83.8461 18.68 83.7561 19.29 83.5761 19.99C83.4161 20.67 83.1961 21.37 82.9161 22.09C82.6361 22.81 82.3361 23.49 82.0161 24.13C81.6961 24.75 81.3761 25.27 81.0561 25.69C80.8761 25.93 80.5861 26.2 80.1861 26.5C79.7861 26.78 79.3461 27.05 78.8661 27.31C78.4061 27.55 77.9461 27.75 77.4861 27.91C77.0261 28.07 76.6461 28.15 76.3461 28.15ZM77.1561 27.31C78.0961 27.11 78.8561 26.66 79.4361 25.96C79.8961 25.42 80.3261 24.71 80.7261 23.83C81.1261 22.95 81.4461 22.04 81.6861 21.1C81.9461 20.16 82.0761 19.34 82.0761 18.64C82.0761 18.58 82.0661 18.48 82.0461 18.34C82.0461 18.2 82.0161 18.12 81.9561 18.1C81.7161 17.98 81.4461 17.92 81.1461 17.92C80.9461 17.92 80.6861 17.99 80.3661 18.13C80.0461 18.25 79.8061 18.39 79.6461 18.55C79.5461 18.65 79.4461 18.79 79.3461 18.97C79.2661 19.13 79.1861 19.27 79.1061 19.39C78.7261 19.99 78.3561 20.69 77.9961 21.49C77.6561 22.29 77.3761 23.11 77.1561 23.95C76.9361 24.79 76.8261 25.58 76.8261 26.32C76.8261 26.56 76.8461 26.78 76.8861 26.98C76.9461 27.16 77.0361 27.27 77.1561 27.31ZM89.5229 28.09C89.1629 28.09 88.9229 27.99 88.8029 27.79C88.6829 27.57 88.6229 27.3 88.6229 26.98C88.6229 26.46 88.7029 25.88 88.8629 25.24C89.0429 24.58 89.2029 24 89.3429 23.5C88.8229 24.3 88.2229 25.09 87.5429 25.87C86.8629 26.65 86.0829 27.27 85.2029 27.73C85.0629 27.81 84.9029 27.89 84.7229 27.97C84.5429 28.03 84.3729 28.06 84.2129 28.06C83.9329 28.06 83.7429 27.96 83.6429 27.76C83.5629 27.56 83.5229 27.35 83.5229 27.13V27.01C83.5229 26.69 83.5829 26.37 83.7029 26.05C83.8229 25.71 83.9329 25.39 84.0329 25.09C84.1929 24.63 84.3829 24.06 84.6029 23.38C84.8429 22.68 85.0529 21.98 85.2329 21.28C85.4329 20.58 85.5329 20.01 85.5329 19.57C85.5329 19.39 85.5029 19.22 85.4429 19.06C85.4029 18.9 85.2729 18.81 85.0529 18.79C85.0529 18.79 85.0329 18.79 84.9929 18.79C84.9729 18.79 84.9629 18.78 84.9629 18.76C84.9629 18.7 85.0629 18.64 85.2629 18.58C85.4829 18.5 85.7429 18.42 86.0429 18.34C86.3429 18.26 86.6229 18.2 86.8829 18.16C87.1429 18.1 87.3129 18.07 87.3929 18.07C87.4329 18.07 87.5029 18.08 87.6029 18.1C87.7229 18.12 87.7829 18.18 87.7829 18.28C87.7829 18.32 87.7729 18.35 87.7529 18.37C87.5529 18.85 87.3229 19.42 87.0629 20.08C86.8029 20.74 86.5429 21.44 86.2829 22.18C86.0429 22.9 85.8429 23.61 85.6829 24.31C85.5229 24.99 85.4429 25.6 85.4429 26.14C85.4429 26.24 85.4629 26.34 85.5029 26.44C85.5429 26.54 85.6229 26.59 85.7429 26.59C85.9629 26.59 86.2329 26.46 86.5529 26.2C86.8929 25.94 87.1329 25.74 87.2729 25.6C88.0129 24.82 88.6829 23.87 89.2829 22.75C89.8829 21.63 90.3429 20.56 90.6629 19.54C90.7629 19.24 90.8629 19.03 90.9629 18.91C91.0629 18.77 91.2429 18.6 91.5029 18.4C91.8229 18.18 92.1729 17.98 92.5529 17.8C92.9529 17.62 93.3529 17.53 93.7529 17.53C93.7929 17.53 93.8429 17.56 93.9029 17.62C93.9629 17.66 93.9929 17.71 93.9929 17.77C93.9929 17.81 93.9629 17.84 93.9029 17.86C93.8629 17.86 93.8229 17.86 93.7829 17.86C93.5229 17.86 93.2529 18.02 92.9729 18.34C92.6929 18.66 92.4229 19.07 92.1629 19.57C91.9029 20.07 91.6629 20.59 91.4429 21.13C91.2429 21.67 91.0629 22.17 90.9029 22.63C90.7629 23.07 90.6629 23.4 90.6029 23.62C90.5229 24 90.4329 24.38 90.3329 24.76C90.2529 25.14 90.2129 25.53 90.2129 25.93C90.2129 26.09 90.2329 26.3 90.2729 26.56C90.3329 26.8 90.4829 26.92 90.7229 26.92C90.8629 26.92 91.0029 26.87 91.1429 26.77C91.5829 26.51 92.0029 26.16 92.4029 25.72C92.8029 25.26 93.1729 24.77 93.5129 24.25C93.8529 23.71 94.1229 23.22 94.3229 22.78C94.3629 22.8 94.3829 22.84 94.3829 22.9C94.3829 23.06 94.2729 23.32 94.0529 23.68C93.8529 24.02 93.6429 24.35 93.4229 24.67C93.2229 24.97 93.1129 25.15 93.0929 25.21C93.0729 25.35 93.0429 25.47 93.0029 25.57C92.9829 25.65 92.9429 25.76 92.8829 25.9C92.6429 26.16 92.3229 26.46 91.9229 26.8C91.5429 27.14 91.1429 27.44 90.7229 27.7C90.3029 27.96 89.9029 28.09 89.5229 28.09ZM94.003 28.24C93.623 28.24 93.203 28.17 92.743 28.03C92.283 27.89 91.943 27.63 91.723 27.25V27.19C91.723 27.09 91.853 26.94 92.113 26.74C92.353 26.52 92.613 26.31 92.893 26.11C93.173 25.89 93.353 25.73 93.433 25.63L93.643 25.57L93.703 25.69C93.563 25.81 93.493 25.94 93.493 26.08C93.493 26.38 93.603 26.63 93.823 26.83C94.063 27.03 94.333 27.18 94.633 27.28C94.953 27.38 95.233 27.43 95.473 27.43C95.753 27.43 96.103 27.35 96.523 27.19C96.963 27.03 97.353 26.81 97.693 26.53C98.033 26.25 98.203 25.94 98.203 25.6C98.203 25.08 98.043 24.63 97.723 24.25C97.403 23.87 97.033 23.51 96.613 23.17C96.193 22.83 95.823 22.47 95.503 22.09C95.183 21.71 95.023 21.27 95.023 20.77C95.023 20.19 95.193 19.67 95.533 19.21C95.893 18.73 96.343 18.33 96.883 18.01C97.443 17.67 98.023 17.42 98.623 17.26C99.223 17.08 99.773 16.99 100.273 16.99C100.353 16.99 100.533 17.01 100.813 17.05C101.093 17.07 101.353 17.12 101.593 17.2C101.853 17.26 101.983 17.35 101.983 17.47C101.983 17.51 101.973 17.53 101.953 17.53H101.893L101.653 17.47C101.713 17.61 101.743 17.78 101.743 17.98C101.743 18.16 101.703 18.39 101.623 18.67C101.543 18.95 101.453 19.17 101.353 19.33C101.333 19.37 101.233 19.5 101.053 19.72C100.873 19.94 100.693 20.15 100.513 20.35C100.333 20.55 100.223 20.65 100.183 20.65L100.153 20.59C100.193 20.49 100.323 20.32 100.543 20.08C100.763 19.82 100.873 19.49 100.873 19.09C100.873 18.67 100.683 18.33 100.303 18.07C99.923 17.79 99.533 17.65 99.133 17.65C98.753 17.65 98.353 17.77 97.933 18.01C97.533 18.25 97.193 18.56 96.913 18.94C96.653 19.32 96.523 19.71 96.523 20.11C96.523 20.47 96.693 20.85 97.033 21.25C97.393 21.63 97.793 22.02 98.233 22.42C98.693 22.8 99.093 23.18 99.433 23.56C99.793 23.94 99.973 24.3 99.973 24.64V24.73C99.973 25.23 99.753 25.7 99.313 26.14C98.873 26.56 98.323 26.93 97.663 27.25C97.003 27.57 96.333 27.82 95.653 28C94.993 28.16 94.443 28.24 94.003 28.24Z" fill="#010001"/>
<path d="M55.6332 28.03C55.3132 28.03 55.0832 27.93 54.9432 27.73C54.8232 27.53 54.7532 27.29 54.7332 27.01C54.7332 26.73 54.7332 26.47 54.7332 26.23C54.7332 25.85 54.7632 25.3 54.8232 24.58C54.9032 23.84 55.0132 23.07 55.1532 22.27C55.2932 21.45 55.4732 20.71 55.6932 20.05C55.9332 19.37 56.2132 18.91 56.5332 18.67C56.8532 18.43 57.2532 18.25 57.7332 18.13C58.2332 17.99 58.6732 17.92 59.0532 17.92C59.0932 17.92 59.1432 17.94 59.2032 17.98C59.2632 18.02 59.3032 18.06 59.3232 18.1V18.19C59.3032 18.25 59.2732 18.28 59.2332 18.28C59.2132 18.26 59.1832 18.25 59.1432 18.25C58.7632 18.25 58.4132 18.44 58.0932 18.82C57.7732 19.2 57.4932 19.66 57.2532 20.2C57.0132 20.74 56.8132 21.27 56.6532 21.79C56.5132 22.31 56.4132 22.71 56.3532 22.99C56.2732 23.37 56.2132 23.76 56.1732 24.16C56.1332 24.56 56.1132 24.96 56.1132 25.36C56.1132 25.56 56.1332 25.82 56.1732 26.14C56.2332 26.44 56.4032 26.59 56.6832 26.59C56.9632 26.59 57.2732 26.44 57.6132 26.14C57.9732 25.84 58.2532 25.59 58.4532 25.39C59.3532 24.43 60.0832 23.37 60.6432 22.21C61.2032 21.05 61.6832 19.86 62.0832 18.64C62.1432 18.46 62.2132 18.3 62.2932 18.16C62.3732 18.02 62.5032 17.9 62.6832 17.8C62.7632 17.76 62.8732 17.71 63.0132 17.65C63.1532 17.57 63.2632 17.53 63.3432 17.53C63.4632 17.53 63.5232 17.61 63.5232 17.77C63.5232 17.99 63.4232 18.3 63.2232 18.7C63.0432 19.1 62.9032 19.4 62.8032 19.6C62.5832 20 62.2832 20.55 61.9032 21.25C61.5232 21.93 61.0832 22.66 60.5832 23.44C60.0832 24.22 59.5532 24.96 58.9932 25.66C58.4332 26.34 57.8632 26.91 57.2832 27.37C56.7032 27.81 56.1532 28.03 55.6332 28.03ZM63.9948 28.12C62.8348 28.12 62.2548 27.53 62.2548 26.35C62.2548 25.47 62.4348 24.53 62.7948 23.53C63.1548 22.51 63.6248 21.54 64.2048 20.62C64.7848 19.68 65.3948 18.92 66.0348 18.34C66.7948 17.68 67.6848 17.35 68.7048 17.35C68.9448 17.35 69.2348 17.38 69.5748 17.44C69.9348 17.5 70.2448 17.62 70.5048 17.8C70.7648 17.96 70.8948 18.2 70.8948 18.52C70.8948 18.98 70.7248 19.51 70.3848 20.11C70.0448 20.69 69.7348 21.16 69.4548 21.52C69.5548 21.54 69.6748 21.57 69.8148 21.61C69.9748 21.65 70.0548 21.73 70.0548 21.85C70.0548 21.91 70.0048 21.94 69.9048 21.94C69.7248 21.94 69.5448 21.92 69.3648 21.88C69.1848 21.84 69.0048 21.82 68.8248 21.82C68.1448 21.82 67.4448 21.92 66.7248 22.12C66.0248 22.32 65.3548 22.53 64.7148 22.75C64.5148 23.23 64.3348 23.76 64.1748 24.34C64.0348 24.92 63.9648 25.47 63.9648 25.99C63.9648 26.37 64.0348 26.71 64.1748 27.01C64.3348 27.31 64.6348 27.46 65.0748 27.46C65.6148 27.46 66.1648 27.31 66.7248 27.01C67.3048 26.69 67.8548 26.29 68.3748 25.81C68.9148 25.31 69.3948 24.79 69.8148 24.25C70.2348 23.71 70.5648 23.22 70.8048 22.78C70.8248 22.8 70.8348 22.84 70.8348 22.9C70.8348 23.08 70.7248 23.33 70.5048 23.65C70.2848 23.95 70.0548 24.25 69.8148 24.55C69.5948 24.85 69.4648 25.07 69.4248 25.21C69.4048 25.35 69.3648 25.47 69.3048 25.57C69.2648 25.67 69.2148 25.78 69.1548 25.9C68.8148 26.24 68.3248 26.59 67.6848 26.95C67.0648 27.29 66.4148 27.57 65.7348 27.79C65.0748 28.01 64.4948 28.12 63.9948 28.12ZM65.1348 21.79C65.6548 21.69 66.1648 21.61 66.6648 21.55C67.1848 21.49 67.7048 21.46 68.2248 21.46C68.3848 21.46 68.5448 21.46 68.7048 21.46C68.8648 21.46 69.0248 21.47 69.1848 21.49C69.3448 21.15 69.4748 20.78 69.5748 20.38C69.6948 19.98 69.7548 19.59 69.7548 19.21C69.7548 18.91 69.6948 18.61 69.5748 18.31C69.4548 17.99 69.1948 17.83 68.7948 17.83C68.4148 17.83 68.0248 17.99 67.6248 18.31C67.2448 18.63 66.9348 18.92 66.6948 19.18C66.3748 19.56 66.0848 19.98 65.8248 20.44C65.5848 20.88 65.3548 21.33 65.1348 21.79ZM71.5588 27.97C70.9588 27.97 70.6587 27.64 70.6587 26.98C70.6587 26.52 70.7788 25.88 71.0188 25.06C71.2588 24.24 71.5388 23.37 71.8588 22.45C72.1988 21.51 72.5288 20.63 72.8488 19.81C73.1888 18.97 73.4488 18.31 73.6288 17.83C73.8888 17.13 74.2088 16.32 74.5888 15.4C74.9688 14.48 75.4088 13.55 75.9088 12.61C76.4088 11.65 76.9688 10.77 77.5888 9.97C78.2288 9.17 78.9288 8.52 79.6888 8.02C80.4688 7.52 81.3188 7.27 82.2388 7.27C83.2388 7.27 83.8988 7.45 84.2188 7.81C84.5588 8.17 84.7288 8.54 84.7288 8.92C84.7288 9.08 84.6688 9.18 84.5488 9.22C84.4488 9.26 84.3988 9.21 84.3988 9.07C84.3988 8.65 84.2288 8.31 83.8888 8.05C83.5688 7.77 83.1688 7.63 82.6888 7.63C81.8688 7.63 81.0888 7.94 80.3488 8.56C79.6088 9.18 78.9188 9.98 78.2788 10.96C77.6388 11.94 77.0588 12.98 76.5388 14.08C76.0188 15.16 75.5588 16.19 75.1588 17.17C74.7788 18.13 74.4788 18.9 74.2588 19.48C74.1188 19.86 73.9288 20.36 73.6888 20.98C73.4488 21.58 73.2088 22.22 72.9688 22.9C72.7488 23.56 72.5588 24.2 72.3988 24.82C72.2388 25.42 72.1588 25.91 72.1588 26.29C72.1588 26.41 72.1788 26.55 72.2188 26.71C72.2588 26.87 72.3588 26.95 72.5188 26.95C72.6188 26.95 72.6988 26.93 72.7588 26.89C72.8388 26.85 72.9188 26.81 72.9988 26.77C73.4588 26.51 73.8988 26.16 74.3188 25.72C74.7588 25.26 75.1588 24.77 75.5188 24.25C75.8788 23.71 76.1788 23.22 76.4188 22.78C76.4388 22.8 76.4488 22.84 76.4488 22.9C76.4488 23.06 76.3288 23.31 76.0888 23.65C75.8688 23.99 75.6388 24.32 75.3988 24.64C75.1788 24.94 75.0588 25.13 75.0388 25.21C75.0188 25.35 74.9888 25.47 74.9488 25.57C74.9088 25.65 74.8588 25.76 74.7988 25.9C74.5588 26.14 74.2488 26.42 73.8688 26.74C73.5088 27.06 73.1288 27.35 72.7288 27.61C72.3288 27.85 71.9388 27.97 71.5588 27.97Z" fill="#4D004D"/>
</svg>
