<svg width="200" height="45" viewBox="0 0 200 45" fill="none" xmlns="http://www.w3.org/2000/svg">
<path d="M27.925 21.6C27.7583 21.2 27.5333 20.6917 27.25 20.075C26.9833 19.4583 26.6917 18.7917 26.375 18.075C26.0583 17.3583 25.7167 16.625 25.35 15.875C25 15.1083 24.6667 14.3917 24.35 13.725C24.0333 13.0417 23.7333 12.4333 23.45 11.9C23.1833 11.3667 22.9667 10.9583 22.8 10.675C22.6167 12.6417 22.4667 14.775 22.35 17.075C22.2333 19.3583 22.1333 21.6667 22.05 24H19.675C19.7417 22.5 19.8167 20.9917 19.9 19.475C19.9833 17.9417 20.075 16.4417 20.175 14.975C20.2917 13.4917 20.4083 12.05 20.525 10.65C20.6583 9.25 20.8 7.925 20.95 6.675H23.075C23.525 7.40833 24.0083 8.275 24.525 9.275C25.0417 10.275 25.5583 11.325 26.075 12.425C26.5917 13.5083 27.0917 14.6 27.575 15.7C28.0583 16.7833 28.5 17.775 28.9 18.675C29.3 17.775 29.7417 16.7833 30.225 15.7C30.7083 14.6 31.2083 13.5083 31.725 12.425C32.2417 11.325 32.7583 10.275 33.275 9.275C33.7917 8.275 34.275 7.40833 34.725 6.675H36.85C37.4167 12.2583 37.8417 18.0333 38.125 24H35.75C35.6667 21.6667 35.5667 19.3583 35.45 17.075C35.3333 14.775 35.1833 12.6417 35 10.675C34.8333 10.9583 34.6083 11.3667 34.325 11.9C34.0583 12.4333 33.7667 13.0417 33.45 13.725C33.1333 14.3917 32.7917 15.1083 32.425 15.875C32.075 16.625 31.7417 17.3583 31.425 18.075C31.1083 18.7917 30.8083 19.4583 30.525 20.075C30.2583 20.6917 30.0417 21.2 29.875 21.6H27.925ZM46.1773 22.325C46.7273 22.325 47.2107 22.3167 47.6273 22.3C48.0607 22.2667 48.419 22.2167 48.7023 22.15V18.275C48.5357 18.1917 48.2607 18.125 47.8773 18.075C47.5107 18.0083 47.0607 17.975 46.5273 17.975C46.1773 17.975 45.8023 18 45.4023 18.05C45.019 18.1 44.6607 18.2083 44.3273 18.375C44.0107 18.525 43.744 18.7417 43.5273 19.025C43.3107 19.2917 43.2023 19.65 43.2023 20.1C43.2023 20.9333 43.469 21.5167 44.0023 21.85C44.5357 22.1667 45.2607 22.325 46.1773 22.325ZM45.9773 10.675C46.9107 10.675 47.694 10.8 48.3273 11.05C48.9773 11.2833 49.494 11.625 49.8773 12.075C50.2773 12.5083 50.5607 13.0333 50.7273 13.65C50.894 14.25 50.9773 14.9167 50.9773 15.65V23.775C50.7773 23.8083 50.494 23.8583 50.1273 23.925C49.7773 23.975 49.3773 24.025 48.9273 24.075C48.4773 24.125 47.9857 24.1667 47.4523 24.2C46.9357 24.25 46.419 24.275 45.9023 24.275C45.169 24.275 44.494 24.2 43.8773 24.05C43.2607 23.9 42.7273 23.6667 42.2773 23.35C41.8273 23.0167 41.4773 22.5833 41.2273 22.05C40.9773 21.5167 40.8523 20.875 40.8523 20.125C40.8523 19.4083 40.994 18.7917 41.2773 18.275C41.5773 17.7583 41.9773 17.3417 42.4773 17.025C42.9773 16.7083 43.5607 16.475 44.2273 16.325C44.894 16.175 45.594 16.1 46.3273 16.1C46.5607 16.1 46.8023 16.1167 47.0523 16.15C47.3023 16.1667 47.5357 16.2 47.7523 16.25C47.9857 16.2833 48.1857 16.3167 48.3523 16.35C48.519 16.3833 48.6357 16.4083 48.7023 16.425V15.775C48.7023 15.3917 48.6607 15.0167 48.5773 14.65C48.494 14.2667 48.344 13.9333 48.1273 13.65C47.9107 13.35 47.6107 13.1167 47.2273 12.95C46.8607 12.7667 46.3773 12.675 45.7773 12.675C45.0107 12.675 44.3357 12.7333 43.7523 12.85C43.1857 12.95 42.7607 13.0583 42.4773 13.175L42.2023 11.25C42.5023 11.1167 43.0023 10.9917 43.7023 10.875C44.4023 10.7417 45.1607 10.675 45.9773 10.675ZM59.6389 10.725C59.8389 10.725 60.0639 10.7417 60.3139 10.775C60.5805 10.7917 60.8389 10.825 61.0889 10.875C61.3389 10.9083 61.5639 10.95 61.7639 11C61.9805 11.0333 62.1389 11.0667 62.2389 11.1L61.8389 13.125C61.6555 13.0583 61.3472 12.9833 60.9139 12.9C60.4972 12.8 59.9555 12.75 59.2889 12.75C58.8555 12.75 58.4222 12.8 57.9889 12.9C57.5722 12.9833 57.2972 13.0417 57.1639 13.075V24H54.8389V11.55C55.3889 11.35 56.0722 11.1667 56.8889 11C57.7055 10.8167 58.6222 10.725 59.6389 10.725ZM109.502 17.5C109.502 18.5333 109.352 19.4667 109.052 20.3C108.752 21.1333 108.327 21.85 107.777 22.45C107.244 23.05 106.602 23.5167 105.852 23.85C105.102 24.1667 104.286 24.325 103.402 24.325C102.519 24.325 101.702 24.1667 100.952 23.85C100.202 23.5167 99.5523 23.05 99.0023 22.45C98.469 21.85 98.0523 21.1333 97.7523 20.3C97.4523 19.4667 97.3023 18.5333 97.3023 17.5C97.3023 16.4833 97.4523 15.5583 97.7523 14.725C98.0523 13.875 98.469 13.15 99.0023 12.55C99.5523 11.95 100.202 11.4917 100.952 11.175C101.702 10.8417 102.519 10.675 103.402 10.675C104.286 10.675 105.102 10.8417 105.852 11.175C106.602 11.4917 107.244 11.95 107.777 12.55C108.327 13.15 108.752 13.875 109.052 14.725C109.352 15.5583 109.502 16.4833 109.502 17.5ZM107.077 17.5C107.077 16.0333 106.744 14.875 106.077 14.025C105.427 13.1583 104.536 12.725 103.402 12.725C102.269 12.725 101.369 13.1583 100.702 14.025C100.052 14.875 99.7273 16.0333 99.7273 17.5C99.7273 18.9667 100.052 20.1333 100.702 21C101.369 21.85 102.269 22.275 103.402 22.275C104.536 22.275 105.427 21.85 106.077 21C106.744 20.1333 107.077 18.9667 107.077 17.5ZM123.123 23.625C122.59 23.7583 121.882 23.9 120.998 24.05C120.132 24.2 119.123 24.275 117.973 24.275C116.973 24.275 116.132 24.1333 115.448 23.85C114.765 23.55 114.215 23.1333 113.798 22.6C113.382 22.0667 113.082 21.4417 112.898 20.725C112.715 19.9917 112.623 19.1833 112.623 18.3V11H114.948V17.8C114.948 19.3833 115.198 20.5167 115.698 21.2C116.198 21.8833 117.04 22.225 118.223 22.225C118.473 22.225 118.732 22.2167 118.998 22.2C119.265 22.1833 119.515 22.1667 119.748 22.15C119.982 22.1167 120.19 22.0917 120.373 22.075C120.573 22.0417 120.715 22.0083 120.798 21.975V11H123.123V23.625ZM130.154 22.325C131.104 22.325 131.804 22.2 132.254 21.95C132.721 21.7 132.954 21.3 132.954 20.75C132.954 20.1833 132.729 19.7333 132.279 19.4C131.829 19.0667 131.087 18.6917 130.054 18.275C129.554 18.075 129.071 17.875 128.604 17.675C128.154 17.4583 127.762 17.2083 127.429 16.925C127.096 16.6417 126.829 16.3 126.629 15.9C126.429 15.5 126.329 15.0083 126.329 14.425C126.329 13.275 126.754 12.3667 127.604 11.7C128.454 11.0167 129.612 10.675 131.079 10.675C131.446 10.675 131.812 10.7 132.179 10.75C132.546 10.7833 132.887 10.8333 133.204 10.9C133.521 10.95 133.796 11.0083 134.029 11.075C134.279 11.1417 134.471 11.2 134.604 11.25L134.179 13.25C133.929 13.1167 133.537 12.9833 133.004 12.85C132.471 12.7 131.829 12.625 131.079 12.625C130.429 12.625 129.862 12.7583 129.379 13.025C128.896 13.275 128.654 13.675 128.654 14.225C128.654 14.5083 128.704 14.7583 128.804 14.975C128.921 15.1917 129.087 15.3917 129.304 15.575C129.537 15.7417 129.821 15.9 130.154 16.05C130.487 16.2 130.887 16.3583 131.354 16.525C131.971 16.7583 132.521 16.9917 133.004 17.225C133.487 17.4417 133.896 17.7 134.229 18C134.579 18.3 134.846 18.6667 135.029 19.1C135.212 19.5167 135.304 20.0333 135.304 20.65C135.304 21.85 134.854 22.7583 133.954 23.375C133.071 23.9917 131.804 24.3 130.154 24.3C129.004 24.3 128.104 24.2 127.454 24C126.804 23.8167 126.362 23.675 126.129 23.575L126.554 21.575C126.821 21.675 127.246 21.825 127.829 22.025C128.412 22.225 129.187 22.325 130.154 22.325Z" fill="#010001"/>
<path d="M75.1695 11C74.5195 13.4333 73.7529 15.7667 72.8695 18C72.0029 20.2333 71.1612 22.2333 70.3445 24H68.2445C67.4279 22.2333 66.5779 20.2333 65.6945 18C64.8279 15.7667 64.0695 13.4333 63.4195 11H65.9195C66.1195 11.8167 66.3529 12.6917 66.6195 13.625C66.9029 14.5417 67.1945 15.4583 67.4945 16.375C67.8112 17.275 68.1279 18.15 68.4445 19C68.7612 19.85 69.0612 20.6083 69.3445 21.275C69.6279 20.6083 69.9279 19.85 70.2445 19C70.5612 18.15 70.8695 17.275 71.1695 16.375C71.4862 15.4583 71.7779 14.5417 72.0445 13.625C72.3279 12.6917 72.5695 11.8167 72.7695 11H75.1695ZM76.5016 17.525C76.5016 16.375 76.6682 15.375 77.0016 14.525C77.3349 13.6583 77.7766 12.9417 78.3266 12.375C78.8766 11.8083 79.5099 11.3833 80.2266 11.1C80.9432 10.8167 81.6766 10.675 82.4266 10.675C84.1766 10.675 85.5182 11.225 86.4516 12.325C87.3849 13.4083 87.8516 15.0667 87.8516 17.3C87.8516 17.4 87.8516 17.5333 87.8516 17.7C87.8516 17.85 87.8432 17.9917 87.8266 18.125H78.9266C79.0266 19.475 79.4182 20.5 80.1016 21.2C80.7849 21.9 81.8516 22.25 83.3016 22.25C84.1182 22.25 84.8016 22.1833 85.3516 22.05C85.9182 21.9 86.3432 21.7583 86.6266 21.625L86.9516 23.575C86.6682 23.725 86.1682 23.8833 85.4516 24.05C84.7516 24.2167 83.9516 24.3 83.0516 24.3C81.9182 24.3 80.9349 24.1333 80.1016 23.8C79.2849 23.45 78.6099 22.975 78.0766 22.375C77.5432 21.775 77.1432 21.0667 76.8766 20.25C76.6266 19.4167 76.5016 18.5083 76.5016 17.525ZM85.4266 16.25C85.4432 15.2 85.1766 14.3417 84.6266 13.675C84.0932 12.9917 83.3516 12.65 82.4016 12.65C81.8682 12.65 81.3932 12.7583 80.9766 12.975C80.5766 13.175 80.2349 13.4417 79.9516 13.775C79.6682 14.1083 79.4432 14.4917 79.2766 14.925C79.1266 15.3583 79.0266 15.8 78.9766 16.25H85.4266ZM95.0914 24.25C93.6581 24.2167 92.6414 23.9083 92.0414 23.325C91.4414 22.7417 91.1414 21.8333 91.1414 20.6V5L93.4664 4.6V20.225C93.4664 20.6083 93.4997 20.925 93.5664 21.175C93.6331 21.425 93.7414 21.625 93.8914 21.775C94.0414 21.925 94.2414 22.0417 94.4914 22.125C94.7414 22.1917 95.0497 22.25 95.4164 22.3L95.0914 24.25Z" fill="#4D004D"/>
</svg>
